<?xml version="1.0" encoding="UTF-8" standalone="no"?>
<svg
   xmlns:dc="http://purl.org/dc/elements/1.1/"
   xmlns:cc="http://creativecommons.org/ns#"
   xmlns:rdf="http://www.w3.org/1999/02/22-rdf-syntax-ns#"
   xmlns:svg="http://www.w3.org/2000/svg"
   xmlns="http://www.w3.org/2000/svg"
   xmlns:sodipodi="http://sodipodi.sourceforge.net/DTD/sodipodi-0.dtd"
   xmlns:inkscape="http://www.inkscape.org/namespaces/inkscape"
   width="140mm"
   height="93.878632mm"
   viewBox="0 0 140 93.878633"
   version="1.1"
   id="svg2860"
   inkscape:version="1.0 (4035a4fb49, 2020-05-01)"
   sodipodi:docname="logo-book-2-large.svg"
   inkscape:export-filename="C:\Users\pablo\Desktop\projects\davpython\davpython.github.io\images\logo-book-2-large.png"
   inkscape:export-xdpi="150"
   inkscape:export-ydpi="150">
  <defs
     id="defs2854" />
  <sodipodi:namedview
     id="base"
     pagecolor="#ffffff"
     bordercolor="#666666"
     borderopacity="1.0"
     inkscape:pageopacity="1"
     inkscape:pageshadow="2"
     inkscape:zoom="0.98994949"
     inkscape:cx="172.42649"
     inkscape:cy="275.81073"
     inkscape:document-units="mm"
     inkscape:current-layer="layer1"
     inkscape:document-rotation="0"
     showgrid="false"
     inkscape:window-width="1920"
     inkscape:window-height="986"
     inkscape:window-x="2293"
     inkscape:window-y="-11"
     inkscape:window-maximized="1" />
  <metadata
     id="metadata2857">
    <rdf:RDF>
      <cc:Work
         rdf:about="">
        <dc:format>image/svg+xml</dc:format>
        <dc:type
           rdf:resource="http://purl.org/dc/dcmitype/StillImage" />
        <dc:title />
      </cc:Work>
    </rdf:RDF>
  </metadata>
  <g
     inkscape:label="Layer 1"
     inkscape:groupmode="layer"
     id="layer1"
     transform="translate(-34.041328,-23.803251)">
    <g
       id="g165"
       transform="matrix(0.82706373,0,0,0.82706373,20.886981,14.174873)"
       style="stroke-width:1.20909">
      <g
         transform="matrix(0.95476277,0,0,0.95476277,49.178901,55.702573)"
         style="fill:none;stroke-width:2.85923"
         fill-rule="nonzero"
         id="014---Sleepy-Panda">
        <path
           style="stroke-width:6.45503"
           fill="#7f8e94"
           d="M 46,53.96 C 45.96704,56.76885 43.668956,59.022225 40.86,59 H 27.59 C 27.081671,58.9987 26.584741,58.849276 26.16,58.57 26.017929,58.47104 25.884154,58.360676 25.76,58.24 25.057068,57.538938 24.817533,56.497349 25.143597,55.559649 25.469661,54.621947 26.303757,53.953689 27.29,53.84 29.613948,53.606877 31.882198,52.984883 34,52 c 4,-2 4,-3 8,-3 h 0.09 c 1.96,0.03 3.9,1.05 3.91,4.96 z"
           id="Shape" />
        <path
           style="stroke-width:6.45503"
           fill="#545c60"
           d="M 42.09,49 H 42 c -0.643515,-0.0072 -1.286748,0.03055 -1.925,0.113 1.576,0.349 2.917,1.6 2.925,4.847 -0.03296,2.80885 -2.331044,5.062225 -5.14,5.04 h 3 C 43.668956,59.022225 45.96704,56.76885 46,53.96 45.99,50.05 44.05,49.03 42.09,49 Z"
           id="path1028" />
        <path
           style="stroke-width:6.45503"
           fill="#7f8e94"
           d="M 17.64,58.93 C 17.382879,58.97852 17.121653,59.00197 16.86,59 H 3.59 C 2.2203306,58.9975 1.0895883,57.928636 1.0100904,56.561274 0.9305926,55.193911 1.9298487,54.001211 3.29,53.84 c 0.39,-0.05 0.82,-0.1 1.27,-0.18 1.85,2.41 5.67,4.83 13.08,5.27 z"
           id="path1030" />
        <path
           style="stroke-width:6.45503"
           fill="#545c60"
           d="m 4.56,53.66 c -0.45,0.08 -0.88,0.13 -1.27,0.18 -0.4273106,0.05093 -0.8348773,0.208796 -1.185,0.459 2.016,2.184 5.781,4.23 12.535,4.631 -0.257121,0.04852 -0.518347,0.07197 -0.78,0.07 h 3 c 0.261653,0.002 0.522879,-0.02148 0.78,-0.07 C 10.23,58.49 6.41,56.07 4.56,53.66 Z"
           id="path1032" />
        <path
           style="stroke-width:6.45503"
           fill="#f5f5f5"
           d="M 42.58,38.82 C 42.364463,37.468031 42.002328,36.143556 41.5,34.87 39.975342,31.046959 36.866923,28.073531 32.98,26.72 31.207619,26.059541 29.36573,25.603263 27.49,25.36 26.037695,23.71558 24.12514,22.545055 22,22 v 2 c 0,0 -1,-1 -4,-1 0.538338,0.643551 0.869496,1.434845 0.95,2.27 -0.988106,0.162713 -1.954377,0.437832 -2.88,0.82 -3.140739,1.339544 -5.577581,3.932315 -6.72,7.15 -0.3002037,0.74225 -0.560574,1.499994 -0.78,2.27 0.7650381,-0.339255 1.59312,-0.51305 2.43,-0.51 2.984057,5.33e-4 5.514214,2.193923 5.938088,5.147721 0.423875,2.953798 -1.387371,5.770187 -4.250858,6.609851 C 9.8237433,47.597237 6.7783835,46.204959 5.54,43.49 4.28,44.74 3,45.72 3,49.56 c 0.0626,1.499476 0.6100041,2.938167 1.56,4.1 1.85,2.41 5.67,4.83 13.08,5.27 h 0.01 c 0.79,0.05 1.62,0.07 2.49,0.07 2.014544,0.0059 4.026745,-0.13784 6.02,-0.43 -0.142071,-0.09896 -0.275846,-0.209324 -0.4,-0.33 C 25.057068,57.538938 24.817533,56.49735 25.143597,55.559649 25.469661,54.621947 26.303757,53.953689 27.29,53.84 29.613948,53.606877 31.882198,52.984883 34,52 c 4,-2 4,-3 8,-3 h 0.09 c 0.597688,-1.30905 0.907985,-2.730959 0.91,-4.17 0.02889,-2.011569 -0.111609,-4.022001 -0.42,-6.01 z M 28,49 c -3.313709,0 -6,-2.686292 -6,-6 0,-3.313708 2.686291,-6 6,-6 3.313708,0 6,2.686292 6,6 0,3.313708 -2.686292,6 -6,6 z"
           id="path1034" />
        <path
           style="stroke-width:6.45503"
           fill="#cfd8dc"
           d="M 19,24 V 23.042 C 18.694,23.016 18.363,23 18,23 c 0.171823,0.195555 0.318929,0.411511 0.438,0.643 0.202253,0.0937 0.391225,0.213743 0.562,0.357 z"
           id="path1036" />
        <path
           style="stroke-width:6.45503"
           fill="#cfd8dc"
           d="m 26.5,37.2 c -2.432715,-0.639246 -5.005921,0.306735 -6.445313,2.369472 -1.439393,2.062737 -1.439393,4.804319 0,6.867056 1.439392,2.062737 4.012598,3.008718 6.445313,2.369472 -2.647994,-0.681309 -4.498931,-3.068762 -4.498931,-5.803 0,-2.734238 1.850937,-5.121691 4.498931,-5.803 z"
           id="path1038" />
        <path
           style="stroke-width:6.45503"
           fill="#cfd8dc"
           d="M 8.716,35.047 C 8.668,35.201 8.616,35.354 8.57,35.51 8.8689327,35.379451 9.1783681,35.27441 9.495,35.196 9.2390653,35.128494 8.9787817,35.078709 8.716,35.047 Z"
           id="path1040" />
        <path
           style="stroke-width:6.45503"
           fill="#cfd8dc"
           d="M 42.58,38.82 C 42.364463,37.468031 42.002328,36.143556 41.5,34.87 39.975342,31.046959 36.866923,28.073531 32.98,26.72 31.207619,26.059541 29.36573,25.603263 27.49,25.36 26.037695,23.71558 24.12514,22.545055 22,22 v 1.276 c 0.925924,0.571276 1.764566,1.273175 2.49,2.084 1.87573,0.243263 3.717619,0.699541 5.49,1.36 3.886924,1.353531 6.995342,4.326959 8.52,8.15 0.502328,1.273556 0.864463,2.598031 1.08,3.95 0.308391,1.987999 0.448887,3.99843 0.42,6.01 -0.002,1.439041 -0.312312,2.86095 -0.91,4.17 H 39 c -4,0 -4,1 -8,3 -2.117802,0.984883 -4.386052,1.606877 -6.71,1.84 -0.986243,0.113689 -1.820339,0.781947 -2.146403,1.719649 -0.326064,0.9377 -0.08653,1.979289 0.616403,2.680351 0.124154,0.120676 0.257929,0.231041 0.4,0.33 -1.609657,0.227648 -3.231629,0.357553 -4.857,0.389 0.593,0.025 1.2,0.041 1.837,0.041 2.014544,0.0059 4.026745,-0.13784 6.02,-0.43 -0.142071,-0.09896 -0.275846,-0.209324 -0.4,-0.33 C 25.057068,57.538938 24.817533,56.497349 25.143597,55.559649 25.469661,54.621947 26.303757,53.953689 27.29,53.84 29.613948,53.606877 31.882198,52.984883 34,52 c 4,-2 4,-3 8,-3 h 0.09 c 0.597688,-1.30905 0.907985,-2.730959 0.91,-4.17 0.02889,-2.01157 -0.111609,-4.022001 -0.42,-6.01 z"
           id="path1042" />
        <path
           style="stroke-width:6.45503"
           fill="#cfd8dc"
           d="M 8,47 C 8.5104653,46.9981 9.0185873,46.93085 9.512,46.8 7.7578814,46.349585 6.299348,45.13414 5.54,43.49 4.9150302,44.041424 4.3659141,44.67326 3.907,45.369 5.0134707,46.41465 6.4776142,46.99809 8,47 Z"
           id="path1044" />
        <path
           style="stroke-width:6.45503"
           fill="#37474f"
           d="m 17,41 c 0.0011,2.823677 -1.966763,5.266015 -4.726059,5.865548 C 9.5146451,47.465081 6.7107195,46.059547 5.54,43.49 6.776338,42.364521 7.564681,40.830448 7.76,39.17 7.9603856,37.935629 8.2308224,36.713655 8.57,35.51 9.3350381,35.170745 10.16312,34.99695 11,35 c 3.313709,0 6,2.686292 6,6 z"
           id="path1046" />
        <path
           style="stroke-width:6.45503"
           fill="#ef314c"
           d="M 16.07,26.09 C 12.929261,27.429544 10.492419,30.022315 9.35,33.24 7.6392995,32.166666 6.7422605,30.16959 7.0762029,28.17785 7.4101453,26.186111 8.9094937,24.590822 10.876722,24.134143 12.84395,23.677464 14.892758,24.449072 16.07,26.09 Z"
           id="path1048" />
        <path
           style="stroke-width:6.45503"
           fill="#ef314c"
           d="m 44,30 c 6.3e-5,1.931332 -0.930634,3.74433 -2.5,4.87 -1.524658,-3.823041 -4.633077,-6.796469 -8.52,-8.15 1.452607,-2.218957 4.189707,-3.220991 6.731639,-2.464409 C 42.253571,25.012173 43.997229,27.347864 44,30 Z"
           id="path1050" />
        <path
           style="stroke-width:6.45503"
           fill="#bb193b"
           d="m 38,24 c -0.511154,-3.76e-4 -1.020266,0.06448 -1.515,0.193 2.654173,0.678 4.512111,3.0676 4.515,5.807 -4.57e-4,0.920552 -0.214756,1.828413 -0.626,2.652 0.436621,0.706588 0.813272,1.448516 1.126,2.218 2.113165,-1.520751 3.004464,-4.230757 2.206519,-6.708948 C 42.908573,25.682861 40.603487,24.002049 38,24 Z"
           id="path1052" />
        <path
           style="stroke-width:6.45503"
           fill="#607d8b"
           d="M 57.98,52.26 C 57.671808,52.086637 57.323593,51.996997 56.97,52 h -2.03 c -1.72,0 -3.45,1.02 -3.93,4.8 -0.05548,0.567273 0.133106,1.131347 0.518601,1.551193 C 51.914096,58.771039 52.460063,59.00697 53.03,59 l -12.17,1.63e-4 C 43.668956,59.022225 45.96704,56.76885 46,53.96 45.99,50.05 44.05,49.03 42.09,49 c 0.597688,-1.30905 0.907985,-2.730959 0.91,-4.17 0.02889,-2.01157 -0.111609,-4.022001 -0.42,-6.01 2.189679,0.140095 4.351486,0.567077 6.43,1.27 2.3062,0.752997 4.372569,2.10183 5.99,3.91 0.210455,0.236278 0.404254,0.48688 0.58,0.75 1.546379,2.200387 2.383739,4.820627 2.4,7.51 z"
           id="path1054" />
        <path
           style="stroke-width:6.45503"
           fill="#37474f"
           d="m 51.01,56.8 c 0.424,-3.339 1.823,-4.523 3.33,-4.754 C 54.218251,52.01987 54.094442,52.00447 53.97,52 h -2.03 c -1.72,0 -3.45,1.02 -3.93,4.8 -0.05548,0.567273 0.133106,1.131347 0.518601,1.551193 C 48.914096,58.771039 49.460063,59.00697 50.03,59 h 3 C 52.460063,59.007 51.914096,58.771039 51.528601,58.351193 51.143107,57.931347 50.954523,57.367273 51.01,56.8 Z"
           id="path1056" />
        <path
           style="stroke-width:6.45503"
           fill="#37474f"
           d="M 55.58,44.75 C 55.404254,44.48688 55.210455,44.236278 55,44 c -1.61743,-1.808171 -3.6838,-3.157003 -5.99,-3.91 -2.078514,-0.702923 -4.240321,-1.129905 -6.43,-1.27 0.022,0.13 0.034,0.259 0.054,0.389 1.146851,0.203971 2.275722,0.498561 3.376,0.881 2.3062,0.752997 4.372569,2.10183 5.99,3.91 0.210455,0.236278 0.404254,0.48688 0.58,0.75 1.498285,2.125718 2.328664,4.64993 2.385,7.25 h 2 c 0.353593,-0.003 0.701808,0.08664 1.01,0.26 -0.01479,-2.688838 -0.850396,-5.309031 -2.395,-7.51 z"
           id="path1058" />
        <path
           style="stroke-width:6.45503"
           fill="#f5f5f5"
           d="m 59,40 c -10e-4,2.153677 -1.377857,4.065911 -3.42,4.75 C 55.404254,44.48688 55.210455,44.236278 55,44 53.38257,42.191829 51.3162,40.842997 49.01,40.09 49.001752,40.060752 48.998374,40.030345 49,40 c 0,-2.761424 2.238576,-5 5,-5 2.761424,0 5,2.238576 5,5 z"
           id="path1060" />
        <path
           style="stroke-width:6.45503"
           fill="#cfd8dc"
           d="m 54,35 c -0.510174,0.007 -1.016185,0.09298 -1.5,0.255 1.66205,0.516908 2.933407,1.864378 3.352912,3.553644 0.419506,1.689266 -0.07377,3.474959 -1.300912,4.709356 0.151,0.158 0.3,0.314 0.448,0.482 0.210455,0.236278 0.404254,0.48688 0.58,0.75 2.336861,-0.76803 3.767959,-3.121698 3.374473,-5.549858 C 58.560986,36.771982 56.459818,34.990722 54,35 Z"
           id="path1062" />
        <path
           style="stroke-width:6.45503"
           fill="#7f8e94"
           d="m 59,54 v 3 c -0.01045,1.111938 -0.91803,2.006107 -2.03,2 H 53.03 C 52.460063,59.007 51.914096,58.771039 51.528601,58.351193 51.143107,57.931347 50.954523,57.367273 51.01,56.8 51.49,53.02 53.22,52 54.94,52 h 2.03 c 0.534893,-0.0056 1.049931,0.202356 1.430983,0.577777 C 58.782035,52.953198 58.997633,53.465083 59,54 Z"
           id="path1064" />
        <path
           style="stroke-width:6.45503"
           fill="#545c60"
           d="M 57.98,52.26 C 57.671808,52.086637 57.323593,51.996997 56.97,52 h -2.03 c -0.200868,3.22e-4 -0.40143,0.0157 -0.6,0.046 0.223961,0.03438 0.440405,0.106751 0.64,0.214 0.627453,0.355094 1.016665,1.019043 1.02,1.74 v 3 c -0.01045,1.111938 -0.91803,2.006107 -2.03,2.000031 L 56.97,59 c 1.11197,0.0061 2.019552,-0.888062 2.03,-2 v -3 c -0.0033,-0.720957 -0.392547,-1.384906 -1.02,-1.74 z"
           id="path1066" />
        <circle
           style="stroke-width:6.45503"
           r="6"
           fill="#37474f"
           cy="43"
           cx="28"
           id="Oval" />
        <path
           style="stroke-width:6.45503"
           fill="#02a9f4"
           d="M 39,19 H 29 C 28.150374,19.000399 27.393227,18.463953 27.111891,17.662258 26.830555,16.860563 27.086442,15.968618 27.75,15.438 L 33.3,11 H 29 c -1.10457,0 -2,-0.89543 -2,-2 0,-1.1045695 0.89543,-2 2,-2 h 10 c 0.849626,-3.986e-4 1.606773,0.5360467 1.888109,1.3377416 C 41.169445,9.1394365 40.913558,10.031382 40.25,10.562 L 34.7,15 H 39 c 1.104569,0 2,0.895431 2,2 0,1.104569 -0.895431,2 -2,2 z"
           id="path1069" />
        <path
           style="stroke-width:6.45503"
           fill="#02a9f4"
           d="M 57,13 H 47 C 46.150374,13.000399 45.393227,12.463953 45.111891,11.662258 44.830555,10.860564 45.086442,9.9686178 45.75,9.438 L 51.3,5 H 47 C 45.895431,5 45,4.1045695 45,3 45,1.8954305 45.895431,1 47,1 h 10 c 0.849626,-3.9857e-4 1.606773,0.5360467 1.888109,1.3377416 C 59.169445,3.1394365 58.913558,4.0313822 58.25,4.562 L 52.7,9 H 57 c 1.104569,0 2,0.8954305 2,2 0,1.10457 -0.895431,2 -2,2 z"
           id="path1071" />
        <g
           style="stroke-width:6.45503"
           id="g1087"
           fill="#000000">
          <path
             style="stroke-width:2.85923"
             d="M 60,40 C 59.998605,36.926727 57.675233,34.351381 54.618322,34.034669 51.561411,33.717958 48.759416,35.762289 48.128,38.77 46.598363,38.342302 45.033414,38.052806 43.452,37.905 43.266009,36.980046 43.014713,36.069432 42.7,35.18 44.645,33.422952 45.444308,30.725873 44.770736,28.192784 44.097163,25.659695 42.063791,23.715852 39.502958,23.156948 36.942125,22.598043 34.283746,23.517906 32.616,25.54 31.111025,25.026655 29.562235,24.652093 27.989,24.421 26.434101,22.769511 24.442163,21.59356 22.245,21.03 21.945936,20.954426 21.628731,21.021101 21.385401,21.210683 21.142072,21.400265 20.999853,21.691535 21,22 v 0.394 C 20.025192,22.114045 19.014038,21.981247 18,22 c -0.396443,0.0034 -0.753414,0.240775 -0.91,0.605 -0.156976,0.367238 -0.08376,0.792415 0.187,1.086 0.199227,0.240346 0.353984,0.514304 0.457,0.809 -0.474,0.114 -0.924,0.25 -1.357,0.4 C 14.693544,23.104508 12.084294,22.519232 9.7952243,23.423653 7.5061551,24.328075 6.0015931,26.538737 6,29 5.994749,30.772725 6.779565,32.455625 8.141,33.591 7.5213604,35.348617 7.0634604,37.15913 6.773,39 6.6118972,40.462552 5.9189881,41.814917 4.826,42.8 4.815,42.811 4.803,42.821 4.793,42.832 l -0.2,0.193 C 3.379,44.208 2,45.551 2,49.56 2.019717,50.729751 2.3165003,51.87816 2.866,52.911 1.0648491,53.280347 -0.1639187,54.953722 0.02288903,56.782838 0.20969675,58.611954 1.751371,60.002383 3.59,60 h 13.27 c 0.265756,-0.0034 0.530861,-0.02717 0.793,-0.071 0.792,0.046 1.619,0.071 2.487,0.071 1.949937,0.0024 3.897665,-0.131291 5.829,-0.4 0.500125,0.260326 1.055184,0.397462 1.619,0.4 H 56.973 C 58.636526,60.0055 59.990636,58.663509 60,57 V 54 C 59.9963,53.13158 59.612656,52.308297 58.95,51.747 58.86068,49.427465 58.206036,47.164872 57.043,45.156 58.871393,44.08147 59.995874,42.120759 60,40 Z m -11.323,1.033 c 2.144263,0.695136 4.066113,1.945892 5.57,3.625 0.190671,0.21508 0.366414,0.442945 0.526,0.682 1.188094,1.668678 1.915828,3.620796 2.11,5.66 h -1.938 c -1.574,0 -4.308,0.737 -4.923,5.672 -0.05213,0.448853 0.0016,0.903678 0.157,1.328 H 45.412 C 46.435265,56.90432 47.003048,55.460192 47,53.961 46.988,49.997 45.161,48.613 43.469,48.18 43.818779,47.097657 43.997924,45.967457 44,44.83 c 0.02296,-1.630322 -0.05151,-3.26056 -0.223,-4.882 1.66838,0.179664 3.31173,0.543549 4.9,1.085 z M 38,25 c 1.940339,-0.0041 3.707112,1.116989 4.529791,2.874297 C 43.35247,29.631605 43.081868,31.70647 41.836,33.194 40.274337,30.152158 37.721786,27.734008 34.6,26.339 35.522232,25.477192 36.737771,24.998484 38,25 Z M 8,29 C 7.99592,27.486556 8.8486661,26.101151 10.2017,25.423044 11.554734,24.744938 13.174985,24.890938 14.385,25.8 12.026004,27.13524 10.1393,29.169385 8.985,31.622 8.3488597,30.896791 7.9986947,29.964676 8,29 Z m 0.746,10.336 c 0.168,-0.995 0.373,-2.023 0.641,-3.045 1.874467,-0.644307 3.952564,-0.118097 5.2945,1.340658 1.341935,1.458755 1.69326,3.573455 0.895092,5.387755 C 14.778423,44.833713 12.982106,46.003597 11,46 9.2835543,45.994104 7.6890052,45.111973 6.772,43.661 7.8580928,42.455968 8.5472524,40.946031 8.746,39.336 Z M 3.59,58 C 2.7479889,57.997392 2.054198,57.338414 2.0082851,56.497652 1.9623723,55.656889 2.5802798,54.926281 3.417,54.832 L 3.596,54.809 C 3.757,54.789 3.94,54.758 4.111,54.735 5.3852821,56.151357 6.9585913,57.26661 8.717,58 Z M 4,49.56 c 0,-2.526 0.564,-3.578 1.356,-4.452 1.9434381,2.668744 5.488723,3.614488 8.503183,2.268317 3.01446,-1.346171 4.676573,-4.617387 3.986491,-7.845844 C 17.155593,36.302016 14.301384,33.996161 11,34 c -0.303384,0.0021 -0.606328,0.02347 -0.907,0.064 1.4,-3.692 3.944,-6.936 9.027,-7.809 0.528775,-0.09146 0.8911,-0.583972 0.821,-1.116 -0.04329,-0.338808 -0.115215,-0.673338 -0.215,-1 0.557959,0.06901 1.093388,0.262062 1.567,0.565 0.285608,0.285526 0.714925,0.371232 1.088272,0.217256 C 22.75462,24.767281 22.998704,24.40385 23,24 v -0.626 c 1.433151,0.584858 2.712991,1.49077 3.741,2.648 0.158275,0.178921 0.375372,0.295274 0.612,0.328 C 40.26,28.147 42,36.7 42,44.83 c -0.0058,1.089532 -0.209114,2.168984 -0.6,3.186 -1.87265,-0.0247 -3.704863,0.545306 -5.233,1.628 -0.693,0.419 -1.48,0.894 -2.616,1.461 -2.013817,0.93308 -4.169593,1.522555 -6.378,1.744 -1.115222,0.127945 -2.105808,0.771713 -2.675643,1.738861 C 23.927521,55.55501 23.844459,56.733483 24.273,57.771 22.900112,57.917422 21.52066,57.993855 20.14,58 7.374,58 4,52.479 4,49.56 Z M 37,58 H 27.588 C 26.747952,57.99812 26.054693,57.342318 26.006202,56.503669 25.957711,55.66502 26.570767,54.933687 27.405,54.835 c 2.439384,-0.247892 4.81982,-0.903678 7.042,-1.94 1.207,-0.6 2.066,-1.123 2.756,-1.539 C 38.587596,50.343258 40.290115,49.861995 42,50 c 1.283,0 2.99,0.411 3,3.967 0.0017,1.051968 -0.418669,2.060649 -1.167,2.8 -0.789323,0.787428 -1.85807,1.230672 -2.973,1.233 z m 21,-1 c -0.0082,0.559408 -0.467571,1.006675 -1.027,1 h -3.94 C 52.729655,58.0011 52.440464,57.871786 52.239,57.645 52.060464,57.447852 51.975875,57.183147 52.007,56.919 52.5,53 54.339,53 54.945,53 h 2.028 c 0.559429,-0.0067 1.018772,0.440592 1.027,1 z M 55.9,43.519 c -0.048,-0.057 -0.09,-0.111 -0.141,-0.17 -1.555793,-1.742803 -3.511968,-3.081239 -5.7,-3.9 0.260597,-1.865265 1.789417,-3.294651 3.66797,-3.429408 1.878554,-0.134758 3.595743,1.061777 4.11991,2.870747 0.524168,1.80897 -0.287297,3.738207 -1.94688,4.628661 z"
             id="path1073" />
          <path
             style="stroke-width:2.85923"
             d="m 35,43 c 0,-3.865993 -3.134007,-7 -7,-7 -3.865993,0 -7,3.134007 -7,7 0,3.865993 3.134007,7 7,7 3.864166,-0.0044 6.995591,-3.135834 7,-7 z m -12,0 c 0,-2.761424 2.238576,-5 5,-5 2.761424,0 5,2.238576 5,5 0,2.761424 -2.238576,5 -5,5 -2.760053,-0.0033 -4.996694,-2.239947 -5,-5 z"
             id="path1075" />
          <path
             style="stroke-width:2.85923"
             d="m 11,43 h 2 c 0.552285,0 1,-0.447715 1,-1 0,-0.552285 -0.447715,-1 -1,-1 h -2 c -0.552285,0 -1,0.447715 -1,1 0,0.552285 0.447715,1 1,1 z"
             id="path1077" />
          <path
             style="stroke-width:2.85923"
             d="m 29,43 c 0,-0.552285 -0.447715,-1 -1,-1 h -2 c -0.552285,0 -1,0.447715 -1,1 0,0.552285 0.447715,1 1,1 h 2 c 0.552285,0 1,-0.447715 1,-1 z"
             id="path1079" />
          <path
             style="stroke-width:2.85923"
             d="m 18.553,47.105 -1.356,0.678 -0.49,-0.49 c -0.392379,-0.378972 -1.016085,-0.373552 -1.401819,0.01218 -0.385733,0.385734 -0.391153,1.00944 -0.01218,1.401819 l 1,1 c 0.187493,0.187549 0.441805,0.292943 0.707,0.293 0.154688,0.0013 0.307613,-0.03291 0.447,-0.1 l 2,-1 c 0.494295,-0.246871 0.694871,-0.847705 0.448,-1.342 -0.246871,-0.494295 -0.847705,-0.694871 -1.342,-0.448 z"
             id="path1081" />
          <path
             style="stroke-width:2.85923"
             d="M 26.169,17.993 C 26.590731,19.195292 27.725887,20.000046 29,20 h 10 c 1.656854,0 3,-1.343146 3,-3 0,-1.656854 -1.343146,-3 -3,-3 h -1.448 l 3.322,-2.658 C 41.86836,10.545984 42.251661,9.2088397 41.830021,8.0069189 41.408381,6.804998 40.273732,6.0003578 39,6 H 29 c -1.656854,0 -3,1.3431458 -3,3 0,1.656854 1.343146,3 3,3 h 1.448 l -3.322,2.658 c -0.99468,0.795755 -1.378382,2.132897 -0.957,3.335 z m 2.206,-1.774 5.548,-4.438 c 0.331493,-0.265079 0.459533,-0.710544 0.319387,-1.111186 C 34.102241,10.269172 33.724446,10.000649 33.3,10 H 29 C 28.447715,10 28,9.5522847 28,9 28,8.4477152 28.447715,8 29,8 h 10 c 0.424813,-1.993e-4 0.803387,0.2680233 0.944055,0.6688708 C 40.084722,9.0697182 39.956779,9.5156911 39.625,9.781 l -5.548,4.438 c -0.331493,0.265079 -0.459533,0.710544 -0.319387,1.111186 C 33.897759,15.730828 34.275554,15.999351 34.7,16 H 39 c 0.552285,0 1,0.447715 1,1 0,0.552285 -0.447715,1 -1,1 H 29 C 28.575187,18.000199 28.196613,17.731977 28.055945,17.331129 27.915277,16.930282 28.043221,16.484309 28.375,16.219 Z"
             id="path1083" />
          <path
             style="stroke-width:2.85923"
             d="M 57,8 H 55.552 L 58.874,5.342 C 59.86836,4.5459841 60.251661,3.2088397 59.830021,2.0069189 59.408381,0.80499798 58.273732,3.5782e-4 57,0 H 47 c -1.656854,0 -3,1.3431458 -3,3 0,1.6568543 1.343146,3 3,3 h 1.448 L 45.126,8.658 C 44.13164,9.4540159 43.748339,10.79116 44.169979,11.993081 44.591619,13.195002 45.726268,13.999642 47,14 h 10 c 1.656854,0 3,-1.343146 3,-3 0,-1.6568542 -1.343146,-3 -3,-3 z m 0,4 H 47 C 46.575187,12.000199 46.196613,11.731977 46.055945,11.331129 45.915278,10.930282 46.043221,10.484309 46.375,10.219 L 51.923,5.781 C 52.254493,5.5159206 52.382533,5.0704556 52.242387,4.6698137 52.102241,4.2691717 51.724446,4.0006492 51.3,4 H 47 C 46.447715,4 46,3.5522848 46,3 46,2.4477153 46.447715,2 47,2 h 10 c 0.424813,-1.993e-4 0.803387,0.2680234 0.944055,0.6688708 C 58.084723,3.0697183 57.956779,3.5156911 57.625,3.781 L 52.077,8.219 C 51.745507,8.4840794 51.617467,8.9295444 51.757613,9.3301863 51.897759,9.7308282 52.275554,9.9993508 52.7,10 H 57 c 0.552285,0 1,0.447715 1,1 0,0.552285 -0.447715,1 -1,1 z"
             id="path1085" />
        </g>
      </g>
      <text
         id="text1249-62-9"
         y="31.391279"
         x="102.40266"
         style="font-style:normal;font-variant:normal;font-weight:normal;font-stretch:normal;font-size:10.1039px;line-height:1;font-family:Billo;-inkscape-font-specification:Billo;text-align:center;text-anchor:middle;fill:#37474f;fill-opacity:1;stroke-width:0.319906"
         xml:space="preserve"><tspan
           style="font-style:normal;font-variant:normal;font-weight:normal;font-stretch:normal;font-family:Billo;-inkscape-font-specification:Billo;text-align:center;text-anchor:middle;fill:#37474f;fill-opacity:1;stroke-width:0.319906"
           y="31.391279"
           x="102.40266"
           id="tspan1247-1-7"
           sodipodi:role="line">Data Analysis &amp; Visualization </tspan><tspan
           id="tspan1251-7-8"
           style="font-style:normal;font-variant:normal;font-weight:normal;font-stretch:normal;font-family:Billo;-inkscape-font-specification:Billo;text-align:center;text-anchor:middle;fill:#37474f;fill-opacity:1;stroke-width:0.319906"
           y="41.495178"
           x="102.40266"
           sodipodi:role="line">with Python</tspan></text>
      <g
         transform="translate(40.624968,-54.790253)"
         id="g118"
         style="stroke-width:1.20909">
        <rect
           transform="rotate(-4.7315443)"
           style="fill:#000000;fill-opacity:1;stroke:none;stroke-width:0.604547;stroke-linecap:round;stroke-linejoin:round"
           id="rect2477-8"
           width="51.622849"
           height="12.867414"
           x="61.539055"
           y="135.2197" />
        <text
           transform="rotate(-4.7315443)"
           id="text1249-6-3-6"
           y="144.94943"
           x="86.977005"
           style="font-style:normal;font-variant:normal;font-weight:normal;font-stretch:normal;font-size:8.57823px;line-height:1;font-family:Broadway;-inkscape-font-specification:Broadway;text-align:center;text-anchor:middle;fill:#02a9f4;fill-opacity:1;stroke:none;stroke-width:0.319906"
           xml:space="preserve"><tspan
             id="tspan1251-1-2-8"
             style="font-style:normal;font-variant:normal;font-weight:normal;font-stretch:normal;font-family:'Grand Stylus';-inkscape-font-specification:'Grand Stylus';text-align:center;text-anchor:middle;fill:#02a9f4;fill-opacity:1;stroke:none;stroke-width:0.319906"
             y="144.94943"
             x="86.977005"
             sodipodi:role="line">Pablo Cáceres</tspan></text>
        <g
           transform="matrix(0.80778353,-0.06685965,0.06685965,0.80778353,-69.464713,92.546118)"
           id="g2551-2-6-9"
           style="fill:#ef314c;fill-opacity:1;stroke-width:1.4917">
          <circle
             r="0.8504464"
             cy="63.783482"
             cx="196.74133"
             id="path2515-4-1-1"
             style="opacity:1;fill:#ef314c;fill-opacity:1;stroke:none;stroke-width:0.745852;stroke-linecap:round;stroke-linejoin:round" />
          <ellipse
             transform="rotate(29.425594)"
             ry="0.27625179"
             rx="0.55250359"
             cy="-44.109173"
             cx="204.39536"
             id="path2517-4-3-3"
             style="opacity:1;fill:#ef314c;fill-opacity:1;stroke:none;stroke-width:0.745852;stroke-linecap:round;stroke-linejoin:round" />
          <circle
             r="0.4252232"
             cy="61.7892"
             cx="194.4043"
             id="path2519-6-6-2"
             style="opacity:1;fill:#ef314c;fill-opacity:1;stroke:none;stroke-width:0.745852;stroke-linecap:round;stroke-linejoin:round" />
          <ellipse
             ry="0.37797621"
             rx="0.4252232"
             cy="67.279762"
             cx="196.97284"
             id="path2521-0-8-4"
             style="opacity:1;fill:#ef314c;fill-opacity:1;stroke:none;stroke-width:0.745852;stroke-linecap:round;stroke-linejoin:round" />
        </g>
      </g>
    </g>
  </g>
</svg>
